# xmcd CD database file
#
# Track frame offsets:
#	187
#	18050
#	33085
#	50907
#
# Disc length: 878 seconds
#
# Revision: 0
# Processed by: cddbd v1.5.1PL0 Copyright (c) Steve Scherf et al.
# Submitted via: CDex 1.51
#
DISCID=26036c04
DTITLE=間寛平 - Jijy
DYEAR=1991
DGENRE=JPop
TTITLE0=Jijy
TTITLE1=カルマは急に止まれない
TTITLE2=Jijy(カラオケ)
TTITLE3=カルマは急に止まれない(カラオケ)
EXTD=YEAR: 1991
EXTT0=
EXTT1=
EXTT2=
EXTT3=
PLAYORDER=
